<mxfile host="65bd71144e" scale="4" border="0">
    <diagram id="MitseucPn5BV8PPlK-us" name="tensorcore">
        <mxGraphModel dx="829" dy="604" grid="1" gridSize="10" guides="1" tooltips="1" connect="1" arrows="1" fold="1" page="1" pageScale="1" pageWidth="1654" pageHeight="1169" background="#ffffff" math="0" shadow="0">
            <root>
                <mxCell id="0"/>
                <mxCell id="1" parent="0"/>
                <mxCell id="q8L725evqiA5fkGwEH33-2" value="" style="shape=parallelogram;perimeter=parallelogramPerimeter;whiteSpace=wrap;html=1;fixedSize=1;size=60;rotation=-180;direction=west;flipH=1;" vertex="1" parent="1">
                    <mxGeometry x="200" y="370" width="230" height="60" as="geometry"/>
                </mxCell>
                <mxCell id="q8L725evqiA5fkGwEH33-1" value="" style="shape=cube;whiteSpace=wrap;html=1;boundedLbl=1;backgroundOutline=1;darkOpacity=0.05;darkOpacity2=0.1;size=60;" vertex="1" parent="1">
                    <mxGeometry x="200" y="110" width="220" height="270" as="geometry"/>
                </mxCell>
                <mxCell id="q8L725evqiA5fkGwEH33-4" value="&lt;font size=&quot;3&quot;&gt;B&lt;/font&gt;" style="rounded=0;whiteSpace=wrap;html=1;" vertex="1" parent="1">
                    <mxGeometry x="290" y="200" width="160" height="210" as="geometry"/>
                </mxCell>
                <mxCell id="q8L725evqiA5fkGwEH33-6" value="" style="endArrow=classic;startArrow=classic;html=1;" edge="1" parent="1">
                    <mxGeometry width="50" height="50" relative="1" as="geometry">
                        <mxPoint x="230" y="430" as="sourcePoint"/>
                        <mxPoint x="170" y="370" as="targetPoint"/>
                    </mxGeometry>
                </mxCell>
                <mxCell id="q8L725evqiA5fkGwEH33-7" value="&lt;font size=&quot;3&quot;&gt;M=16&lt;/font&gt;" style="edgeLabel;html=1;align=center;verticalAlign=middle;resizable=0;points=[];" vertex="1" connectable="0" parent="q8L725evqiA5fkGwEH33-6">
                    <mxGeometry x="0.0162" relative="1" as="geometry">
                        <mxPoint as="offset"/>
                    </mxGeometry>
                </mxCell>
                <mxCell id="q8L725evqiA5fkGwEH33-5" value="&lt;font size=&quot;3&quot;&gt;A^T&lt;/font&gt;" style="shape=parallelogram;perimeter=parallelogramPerimeter;whiteSpace=wrap;html=1;fixedSize=1;direction=south;size=60;" vertex="1" parent="1">
                    <mxGeometry x="170" y="110" width="60" height="270" as="geometry"/>
                </mxCell>
                <mxCell id="q8L725evqiA5fkGwEH33-8" value="" style="endArrow=classic;startArrow=classic;html=1;" edge="1" parent="1">
                    <mxGeometry width="50" height="50" relative="1" as="geometry">
                        <mxPoint x="290" y="460" as="sourcePoint"/>
                        <mxPoint x="450" y="460" as="targetPoint"/>
                    </mxGeometry>
                </mxCell>
                <mxCell id="q8L725evqiA5fkGwEH33-9" value="&lt;font size=&quot;3&quot;&gt;N=16&lt;/font&gt;" style="edgeLabel;html=1;align=center;verticalAlign=middle;resizable=0;points=[];" vertex="1" connectable="0" parent="q8L725evqiA5fkGwEH33-8">
                    <mxGeometry x="0.093" y="2" relative="1" as="geometry">
                        <mxPoint as="offset"/>
                    </mxGeometry>
                </mxCell>
                <mxCell id="q8L725evqiA5fkGwEH33-10" value="" style="endArrow=classic;startArrow=classic;html=1;" edge="1" parent="1">
                    <mxGeometry width="50" height="50" relative="1" as="geometry">
                        <mxPoint x="480" y="410" as="sourcePoint"/>
                        <mxPoint x="480" y="200" as="targetPoint"/>
                    </mxGeometry>
                </mxCell>
                <mxCell id="q8L725evqiA5fkGwEH33-11" value="&lt;font size=&quot;3&quot;&gt;K=16&lt;/font&gt;" style="edgeLabel;html=1;align=center;verticalAlign=middle;resizable=0;points=[];" vertex="1" connectable="0" parent="q8L725evqiA5fkGwEH33-10">
                    <mxGeometry x="0.0379" y="1" relative="1" as="geometry">
                        <mxPoint as="offset"/>
                    </mxGeometry>
                </mxCell>
                <mxCell id="q8L725evqiA5fkGwEH33-12" value="&lt;font size=&quot;3&quot;&gt;0&lt;font style=&quot;color: rgb(255, 0, 0);&quot;&gt;0&lt;/font&gt;&lt;/font&gt;" style="rounded=1;whiteSpace=wrap;html=1;" vertex="1" parent="1">
                    <mxGeometry x="290" y="200" width="40" height="40" as="geometry"/>
                </mxCell>
                <mxCell id="q8L725evqiA5fkGwEH33-13" value="&lt;font size=&quot;3&quot;&gt;&lt;font&gt;&lt;font style=&quot;color: rgb(0, 0, 0);&quot;&gt;K-1&lt;/font&gt;&lt;font color=&quot;#ff0000&quot;&gt;0&lt;/font&gt;&lt;/font&gt;&lt;/font&gt;" style="rounded=1;whiteSpace=wrap;html=1;" vertex="1" parent="1">
                    <mxGeometry x="290" y="370" width="40" height="40" as="geometry"/>
                </mxCell>
                <mxCell id="q8L725evqiA5fkGwEH33-14" value="&lt;font size=&quot;3&quot;&gt;&lt;font style=&quot;color: rgb(0, 0, 0);&quot;&gt;0&lt;/font&gt;&lt;font color=&quot;#ff0000&quot; style=&quot;color: rgb(255, 0, 0);&quot;&gt;N-1&lt;/font&gt;&lt;/font&gt;" style="rounded=1;whiteSpace=wrap;html=1;" vertex="1" parent="1">
                    <mxGeometry x="410" y="200" width="40" height="40" as="geometry"/>
                </mxCell>
                <mxCell id="q8L725evqiA5fkGwEH33-15" value="&lt;font size=&quot;3&quot;&gt;&lt;font style=&quot;color: rgb(0, 0, 0);&quot;&gt;K-1&lt;/font&gt;&lt;/font&gt;&lt;div&gt;&lt;font size=&quot;3&quot; color=&quot;#ff0000&quot;&gt;N-1&lt;/font&gt;&lt;/div&gt;" style="rounded=1;whiteSpace=wrap;html=1;" vertex="1" parent="1">
                    <mxGeometry x="410" y="370" width="40" height="40" as="geometry"/>
                </mxCell>
                <mxCell id="q8L725evqiA5fkGwEH33-16" value="0&lt;div&gt;&lt;font style=&quot;color: rgb(0, 0, 255);&quot;&gt;0&lt;/font&gt;&lt;/div&gt;" style="shape=parallelogram;perimeter=parallelogramPerimeter;whiteSpace=wrap;html=1;fixedSize=1;direction=south;size=20;rounded=1;" vertex="1" parent="1">
                    <mxGeometry x="210" y="150" width="20" height="60" as="geometry"/>
                </mxCell>
                <mxCell id="q8L725evqiA5fkGwEH33-17" value="0&lt;div&gt;&lt;font style=&quot;color: rgb(0, 0, 255);&quot;&gt;M-1&lt;/font&gt;&lt;/div&gt;" style="shape=parallelogram;perimeter=parallelogramPerimeter;whiteSpace=wrap;html=1;fixedSize=1;direction=south;size=20;rounded=1;" vertex="1" parent="1">
                    <mxGeometry x="170" y="110" width="20" height="60" as="geometry"/>
                </mxCell>
                <mxCell id="q8L725evqiA5fkGwEH33-19" value="K-1&lt;div&gt;&lt;font style=&quot;color: rgb(0, 0, 255);&quot;&gt;M-1&lt;/font&gt;&lt;/div&gt;" style="shape=parallelogram;perimeter=parallelogramPerimeter;whiteSpace=wrap;html=1;fixedSize=1;direction=south;size=20;rounded=1;" vertex="1" parent="1">
                    <mxGeometry x="170" y="280" width="20" height="60" as="geometry"/>
                </mxCell>
                <mxCell id="q8L725evqiA5fkGwEH33-22" value="&lt;font style=&quot;color: rgb(0, 0, 255);&quot;&gt;M-1&lt;/font&gt;&lt;font style=&quot;color: rgb(255, 0, 0);&quot;&gt;0&lt;/font&gt;" style="shape=parallelogram;perimeter=parallelogramPerimeter;whiteSpace=wrap;html=1;fixedSize=1;flipH=1;rounded=1;" vertex="1" parent="1">
                    <mxGeometry x="200" y="370" width="60" height="20" as="geometry"/>
                </mxCell>
                <mxCell id="q8L725evqiA5fkGwEH33-21" value="&lt;font style=&quot;color: rgb(0, 0, 255);&quot;&gt;0&lt;/font&gt;&lt;font style=&quot;color: rgb(255, 0, 0);&quot;&gt;0&lt;/font&gt;" style="shape=parallelogram;perimeter=parallelogramPerimeter;whiteSpace=wrap;html=1;fixedSize=1;flipH=1;rounded=1;" vertex="1" parent="1">
                    <mxGeometry x="240" y="410" width="60" height="20" as="geometry"/>
                </mxCell>
                <mxCell id="q8L725evqiA5fkGwEH33-25" value="&lt;font size=&quot;3&quot;&gt;C&#39;&lt;/font&gt;" style="text;html=1;align=center;verticalAlign=middle;whiteSpace=wrap;rounded=0;" vertex="1" parent="1">
                    <mxGeometry x="240" y="380" width="60" height="30" as="geometry"/>
                </mxCell>
                <mxCell id="q8L725evqiA5fkGwEH33-23" value="&lt;font style=&quot;color: rgb(0, 0, 255);&quot;&gt;0&lt;/font&gt;&lt;font style=&quot;color: rgb(255, 0, 0);&quot;&gt;N-1&lt;/font&gt;" style="shape=parallelogram;perimeter=parallelogramPerimeter;whiteSpace=wrap;html=1;fixedSize=1;flipH=1;rounded=1;" vertex="1" parent="1">
                    <mxGeometry x="370" y="410" width="60" height="20" as="geometry"/>
                </mxCell>
                <mxCell id="q8L725evqiA5fkGwEH33-18" value="K-1&lt;font style=&quot;color: rgb(0, 0, 255);&quot;&gt;0&lt;/font&gt;" style="shape=parallelogram;perimeter=parallelogramPerimeter;whiteSpace=wrap;html=1;fixedSize=1;direction=south;size=20;rounded=1;" vertex="1" parent="1">
                    <mxGeometry x="210" y="320" width="20" height="60" as="geometry"/>
                </mxCell>
                <mxCell id="q8L725evqiA5fkGwEH33-29" value="" style="shape=parallelogram;perimeter=parallelogramPerimeter;whiteSpace=wrap;html=1;fixedSize=1;size=60;rotation=-180;direction=west;flipH=1;" vertex="1" parent="1">
                    <mxGeometry x="200.64" y="70" width="230" height="60" as="geometry"/>
                </mxCell>
                <mxCell id="q8L725evqiA5fkGwEH33-32" value="&lt;font style=&quot;color: rgb(0, 0, 255);&quot;&gt;M-1&lt;/font&gt;&lt;font style=&quot;color: rgb(255, 0, 0);&quot;&gt;0&lt;/font&gt;" style="shape=parallelogram;perimeter=parallelogramPerimeter;whiteSpace=wrap;html=1;fixedSize=1;flipH=1;rounded=1;" vertex="1" parent="1">
                    <mxGeometry x="200.64" y="70" width="60" height="20" as="geometry"/>
                </mxCell>
                <mxCell id="q8L725evqiA5fkGwEH33-33" value="&lt;font style=&quot;color: rgb(0, 0, 255);&quot;&gt;0&lt;/font&gt;&lt;font style=&quot;color: rgb(255, 0, 0);&quot;&gt;0&lt;/font&gt;" style="shape=parallelogram;perimeter=parallelogramPerimeter;whiteSpace=wrap;html=1;fixedSize=1;flipH=1;rounded=1;" vertex="1" parent="1">
                    <mxGeometry x="240.64" y="110" width="60" height="20" as="geometry"/>
                </mxCell>
                <mxCell id="q8L725evqiA5fkGwEH33-34" value="&lt;font size=&quot;3&quot;&gt;C&lt;/font&gt;" style="text;html=1;align=center;verticalAlign=middle;whiteSpace=wrap;rounded=0;" vertex="1" parent="1">
                    <mxGeometry x="285.64" y="80" width="60" height="30" as="geometry"/>
                </mxCell>
                <mxCell id="q8L725evqiA5fkGwEH33-35" value="&lt;font style=&quot;color: rgb(0, 0, 255);&quot;&gt;0&lt;/font&gt;&lt;font style=&quot;color: rgb(255, 0, 0);&quot;&gt;N-1&lt;/font&gt;" style="shape=parallelogram;perimeter=parallelogramPerimeter;whiteSpace=wrap;html=1;fixedSize=1;flipH=1;rounded=1;" vertex="1" parent="1">
                    <mxGeometry x="370.64" y="110" width="60" height="20" as="geometry"/>
                </mxCell>
                <mxCell id="q8L725evqiA5fkGwEH33-36" value="" style="shape=flexArrow;endArrow=classic;html=1;opacity=70;" edge="1" parent="1">
                    <mxGeometry width="50" height="50" relative="1" as="geometry">
                        <mxPoint x="259.21" y="190" as="sourcePoint"/>
                        <mxPoint x="259.21" y="345.11" as="targetPoint"/>
                    </mxGeometry>
                </mxCell>
                <mxCell id="q8L725evqiA5fkGwEH33-43" value="" style="group" vertex="1" connectable="0" parent="1">
                    <mxGeometry x="410" y="90" width="120" height="95" as="geometry"/>
                </mxCell>
                <mxCell id="q8L725evqiA5fkGwEH33-37" value="" style="endArrow=classic;html=1;" edge="1" parent="q8L725evqiA5fkGwEH33-43">
                    <mxGeometry width="50" height="50" relative="1" as="geometry">
                        <mxPoint x="60" y="40" as="sourcePoint"/>
                        <mxPoint x="20" as="targetPoint"/>
                    </mxGeometry>
                </mxCell>
                <mxCell id="q8L725evqiA5fkGwEH33-38" value="" style="endArrow=classic;html=1;" edge="1" parent="q8L725evqiA5fkGwEH33-43">
                    <mxGeometry width="50" height="50" relative="1" as="geometry">
                        <mxPoint x="40" y="29.22999999999999" as="sourcePoint"/>
                        <mxPoint x="100" y="29" as="targetPoint"/>
                    </mxGeometry>
                </mxCell>
                <mxCell id="q8L725evqiA5fkGwEH33-39" value="" style="endArrow=classic;html=1;" edge="1" parent="q8L725evqiA5fkGwEH33-43">
                    <mxGeometry width="50" height="50" relative="1" as="geometry">
                        <mxPoint x="50" y="20" as="sourcePoint"/>
                        <mxPoint x="50" y="70" as="targetPoint"/>
                    </mxGeometry>
                </mxCell>
                <mxCell id="q8L725evqiA5fkGwEH33-40" value="&lt;font size=&quot;3&quot;&gt;y&lt;/font&gt;" style="text;html=1;align=center;verticalAlign=middle;whiteSpace=wrap;rounded=0;" vertex="1" parent="q8L725evqiA5fkGwEH33-43">
                    <mxGeometry x="90" y="20" width="30" height="30" as="geometry"/>
                </mxCell>
                <mxCell id="q8L725evqiA5fkGwEH33-41" value="&lt;font size=&quot;3&quot;&gt;x&lt;/font&gt;" style="text;html=1;align=center;verticalAlign=middle;resizable=0;points=[];autosize=1;strokeColor=none;fillColor=none;" vertex="1" parent="q8L725evqiA5fkGwEH33-43">
                    <mxGeometry width="30" height="30" as="geometry"/>
                </mxCell>
                <mxCell id="q8L725evqiA5fkGwEH33-42" value="&lt;font size=&quot;3&quot;&gt;z&lt;/font&gt;" style="text;html=1;align=center;verticalAlign=middle;resizable=0;points=[];autosize=1;strokeColor=none;fillColor=none;" vertex="1" parent="q8L725evqiA5fkGwEH33-43">
                    <mxGeometry x="40" y="65" width="30" height="30" as="geometry"/>
                </mxCell>
            </root>
        </mxGraphModel>
    </diagram>
    <diagram id="UY1vrGNhJXPNKtmnH6op" name="ページ1">
        <mxGraphModel dx="663" dy="483" grid="1" gridSize="10" guides="1" tooltips="1" connect="1" arrows="1" fold="1" page="1" pageScale="1" pageWidth="1654" pageHeight="1169" math="0" shadow="0">
            <root>
                <mxCell id="0"/>
                <mxCell id="1" parent="0"/>
                <mxCell id="3" value="" style="rounded=0;whiteSpace=wrap;html=1;" parent="1" vertex="1">
                    <mxGeometry x="160" y="200" width="160" height="160" as="geometry"/>
                </mxCell>
                <mxCell id="4" value="&lt;font style=&quot;font-size: 16px;&quot;&gt;m=16&lt;/font&gt;" style="text;html=1;align=center;verticalAlign=middle;resizable=0;points=[];autosize=1;strokeColor=none;fillColor=none;" parent="1" vertex="1">
                    <mxGeometry x="100.00333333333333" y="244.99777777777777" width="60" height="30" as="geometry"/>
                </mxCell>
                <mxCell id="5" value="k=16" style="text;html=1;align=center;verticalAlign=middle;resizable=0;points=[];autosize=1;strokeColor=none;fillColor=none;fontSize=16;" parent="1" vertex="1">
                    <mxGeometry x="209.99666666666667" y="168" width="60" height="30" as="geometry"/>
                </mxCell>
                <mxCell id="8" value="" style="rounded=0;whiteSpace=wrap;html=1;" parent="1" vertex="1">
                    <mxGeometry x="400" y="200" width="160" height="160" as="geometry"/>
                </mxCell>
                <mxCell id="9" value="k=16" style="text;html=1;align=center;verticalAlign=middle;resizable=0;points=[];autosize=1;strokeColor=none;fillColor=none;fontSize=16;" parent="1" vertex="1">
                    <mxGeometry x="340" y="260" width="60" height="30" as="geometry"/>
                </mxCell>
                <mxCell id="10" value="n=16" style="text;html=1;align=center;verticalAlign=middle;resizable=0;points=[];autosize=1;strokeColor=none;fillColor=none;fontSize=16;" parent="1" vertex="1">
                    <mxGeometry x="425" y="170" width="60" height="30" as="geometry"/>
                </mxCell>
                <mxCell id="17" value="" style="endArrow=classic;html=1;" parent="1" edge="1">
                    <mxGeometry relative="1" as="geometry">
                        <mxPoint x="190" y="220" as="sourcePoint"/>
                        <mxPoint x="290" y="220" as="targetPoint"/>
                    </mxGeometry>
                </mxCell>
                <mxCell id="21" value="Thread0, 1, .. , 15" style="edgeLabel;html=1;align=center;verticalAlign=middle;resizable=0;points=[];" parent="17" vertex="1" connectable="0">
                    <mxGeometry x="-0.0364" relative="1" as="geometry">
                        <mxPoint x="2" y="10" as="offset"/>
                    </mxGeometry>
                </mxCell>
                <mxCell id="28" value="" style="endArrow=classic;html=1;" parent="1" edge="1">
                    <mxGeometry relative="1" as="geometry">
                        <mxPoint x="420" y="230" as="sourcePoint"/>
                        <mxPoint x="420" y="330" as="targetPoint"/>
                    </mxGeometry>
                </mxCell>
                <mxCell id="29" value="Thread0, 16" style="edgeLabel;html=1;align=center;verticalAlign=middle;resizable=0;points=[];" parent="28" vertex="1" connectable="0">
                    <mxGeometry x="-0.0364" relative="1" as="geometry">
                        <mxPoint as="offset"/>
                    </mxGeometry>
                </mxCell>
                <mxCell id="30" value="" style="endArrow=classic;html=1;" parent="1" edge="1">
                    <mxGeometry relative="1" as="geometry">
                        <mxPoint x="450" y="230" as="sourcePoint"/>
                        <mxPoint x="450" y="330" as="targetPoint"/>
                    </mxGeometry>
                </mxCell>
                <mxCell id="31" value="Thread1, 17" style="edgeLabel;html=1;align=center;verticalAlign=middle;resizable=0;points=[];" parent="30" vertex="1" connectable="0">
                    <mxGeometry x="-0.0364" relative="1" as="geometry">
                        <mxPoint y="22" as="offset"/>
                    </mxGeometry>
                </mxCell>
                <mxCell id="32" value="" style="endArrow=classic;html=1;" parent="1" edge="1">
                    <mxGeometry relative="1" as="geometry">
                        <mxPoint x="540.19" y="230" as="sourcePoint"/>
                        <mxPoint x="540.19" y="330" as="targetPoint"/>
                    </mxGeometry>
                </mxCell>
                <mxCell id="33" value="Thread 15, 31" style="edgeLabel;html=1;align=center;verticalAlign=middle;resizable=0;points=[];" parent="32" vertex="1" connectable="0">
                    <mxGeometry x="-0.0364" relative="1" as="geometry">
                        <mxPoint y="-18" as="offset"/>
                    </mxGeometry>
                </mxCell>
                <mxCell id="13" value="" style="rounded=0;whiteSpace=wrap;html=1;" parent="1" vertex="1">
                    <mxGeometry x="640" y="200" width="160" height="160" as="geometry"/>
                </mxCell>
                <mxCell id="14" value="m=16" style="text;html=1;align=center;verticalAlign=middle;resizable=0;points=[];autosize=1;strokeColor=none;fillColor=none;fontSize=16;" parent="1" vertex="1">
                    <mxGeometry x="580" y="252.5" width="60" height="30" as="geometry"/>
                </mxCell>
                <mxCell id="15" value="n=16" style="text;html=1;align=center;verticalAlign=middle;resizable=0;points=[];autosize=1;strokeColor=none;fillColor=none;fontSize=16;" parent="1" vertex="1">
                    <mxGeometry x="677.5" y="170" width="60" height="30" as="geometry"/>
                </mxCell>
                <mxCell id="34" value="T0" style="ellipse;whiteSpace=wrap;html=1;aspect=fixed;" parent="1" vertex="1">
                    <mxGeometry x="640" y="200" width="20" height="20" as="geometry"/>
                </mxCell>
                <mxCell id="36" value="T1" style="ellipse;whiteSpace=wrap;html=1;aspect=fixed;" parent="1" vertex="1">
                    <mxGeometry x="660" y="200" width="20" height="20" as="geometry"/>
                </mxCell>
                <mxCell id="37" value="T15" style="ellipse;whiteSpace=wrap;html=1;aspect=fixed;" parent="1" vertex="1">
                    <mxGeometry x="780" y="200" width="20" height="20" as="geometry"/>
                </mxCell>
                <mxCell id="38" value="" style="endArrow=classic;html=1;" parent="1" edge="1">
                    <mxGeometry relative="1" as="geometry">
                        <mxPoint x="190" y="245" as="sourcePoint"/>
                        <mxPoint x="290" y="245" as="targetPoint"/>
                    </mxGeometry>
                </mxCell>
                <mxCell id="39" value="Thread 16, .. , 31" style="edgeLabel;html=1;align=center;verticalAlign=middle;resizable=0;points=[];" parent="38" vertex="1" connectable="0">
                    <mxGeometry x="-0.0364" relative="1" as="geometry">
                        <mxPoint x="2" y="10" as="offset"/>
                    </mxGeometry>
                </mxCell>
                <mxCell id="40" value="T16" style="ellipse;whiteSpace=wrap;html=1;aspect=fixed;" parent="1" vertex="1">
                    <mxGeometry x="640" y="220" width="20" height="20" as="geometry"/>
                </mxCell>
                <mxCell id="41" value="T17" style="ellipse;whiteSpace=wrap;html=1;aspect=fixed;" parent="1" vertex="1">
                    <mxGeometry x="660" y="220" width="20" height="20" as="geometry"/>
                </mxCell>
                <mxCell id="42" value="T31" style="ellipse;whiteSpace=wrap;html=1;aspect=fixed;" parent="1" vertex="1">
                    <mxGeometry x="780" y="220" width="20" height="20" as="geometry"/>
                </mxCell>
                <mxCell id="43" value="" style="rounded=1;whiteSpace=wrap;html=1;fillColor=#e1d5e7;strokeColor=#9673a6;opacity=40;rotation=-90;" parent="1" vertex="1">
                    <mxGeometry x="150" y="262.5" width="50" height="40" as="geometry"/>
                </mxCell>
                <mxCell id="44" value="" style="rounded=1;whiteSpace=wrap;html=1;fillColor=#dae8fc;strokeColor=#6c8ebf;opacity=40;rotation=-90;" parent="1" vertex="1">
                    <mxGeometry x="463.25" y="135.25" width="35" height="164" as="geometry"/>
                </mxCell>
                <mxCell id="45" value="" style="rounded=1;whiteSpace=wrap;html=1;fillColor=#dae8fc;strokeColor=#6c8ebf;opacity=40;rotation=-90;" parent="1" vertex="1">
                    <mxGeometry x="698.91" y="143.05" width="41.57" height="160" as="geometry"/>
                </mxCell>
                <mxCell id="46" value="Cycle 0" style="rounded=1;whiteSpace=wrap;html=1;fillColor=#dae8fc;strokeColor=#6c8ebf;opacity=40;rotation=0;" parent="1" vertex="1">
                    <mxGeometry x="306.25" y="117.89" width="78.75" height="36.25" as="geometry"/>
                </mxCell>
                <mxCell id="47" value="Cycle 1" style="rounded=1;whiteSpace=wrap;html=1;fillColor=#e1d5e7;strokeColor=#9673a6;opacity=40;rotation=0;" parent="1" vertex="1">
                    <mxGeometry x="385.63" y="117.89" width="78.75" height="36.25" as="geometry"/>
                </mxCell>
                <mxCell id="48" value="" style="rounded=1;whiteSpace=wrap;html=1;fillColor=#dae8fc;strokeColor=#6c8ebf;opacity=40;rotation=-90;" parent="1" vertex="1">
                    <mxGeometry x="147.5" y="210" width="55" height="40" as="geometry"/>
                </mxCell>
                <mxCell id="51" value="" style="rounded=1;whiteSpace=wrap;html=1;fillColor=#e1d5e7;strokeColor=#9673a6;opacity=40;rotation=-90;" parent="1" vertex="1">
                    <mxGeometry x="466.25" y="166.25" width="35" height="170" as="geometry"/>
                </mxCell>
                <mxCell id="52" value="" style="rounded=1;whiteSpace=wrap;html=1;fillColor=#e1d5e7;strokeColor=#9673a6;opacity=40;rotation=-90;" parent="1" vertex="1">
                    <mxGeometry x="700.48" y="181.37" width="40" height="157.25" as="geometry"/>
                </mxCell>
                <mxCell id="53" value="" style="endArrow=classic;html=1;strokeColor=#808080;" parent="1" edge="1">
                    <mxGeometry relative="1" as="geometry">
                        <mxPoint x="190" y="312.5" as="sourcePoint"/>
                        <mxPoint x="290" y="312.5" as="targetPoint"/>
                    </mxGeometry>
                </mxCell>
                <mxCell id="54" value="Thread0, 1, .. , 15" style="edgeLabel;html=1;align=center;verticalAlign=middle;resizable=0;points=[];" parent="53" vertex="1" connectable="0">
                    <mxGeometry x="-0.0364" relative="1" as="geometry">
                        <mxPoint x="2" y="10" as="offset"/>
                    </mxGeometry>
                </mxCell>
                <mxCell id="55" value="" style="endArrow=classic;html=1;strokeColor=#808080;" parent="1" edge="1">
                    <mxGeometry relative="1" as="geometry">
                        <mxPoint x="190" y="340" as="sourcePoint"/>
                        <mxPoint x="290" y="340" as="targetPoint"/>
                    </mxGeometry>
                </mxCell>
                <mxCell id="56" value="Thread 16, .. , 31" style="edgeLabel;html=1;align=center;verticalAlign=middle;resizable=0;points=[];" parent="55" vertex="1" connectable="0">
                    <mxGeometry x="-0.0364" relative="1" as="geometry">
                        <mxPoint x="2" y="10" as="offset"/>
                    </mxGeometry>
                </mxCell>
                <mxCell id="58" value="Cycle 127" style="rounded=1;whiteSpace=wrap;html=1;fillColor=#f8cecc;strokeColor=#b85450;opacity=40;rotation=0;" parent="1" vertex="1">
                    <mxGeometry x="556.25" y="117.89" width="78.75" height="36.25" as="geometry"/>
                </mxCell>
                <mxCell id="59" value="" style="rounded=1;whiteSpace=wrap;html=1;fillColor=#f8cecc;strokeColor=#b85450;opacity=40;rotation=-90;" parent="1" vertex="1">
                    <mxGeometry x="265.63" y="306.5" width="70" height="40" as="geometry"/>
                </mxCell>
                <mxCell id="60" value="" style="rounded=1;whiteSpace=wrap;html=1;fillColor=#f8cecc;strokeColor=#b85450;opacity=40;rotation=-90;" parent="1" vertex="1">
                    <mxGeometry x="462.5" y="260" width="35" height="164" as="geometry"/>
                </mxCell>
                <mxCell id="62" value="T0" style="ellipse;whiteSpace=wrap;html=1;aspect=fixed;strokeColor=#808080;opacity=50;fontColor=#808080;" parent="1" vertex="1">
                    <mxGeometry x="640" y="321.12" width="18.88" height="18.88" as="geometry"/>
                </mxCell>
                <mxCell id="63" value="T1" style="ellipse;whiteSpace=wrap;html=1;aspect=fixed;strokeColor=#808080;opacity=50;fontColor=#808080;" parent="1" vertex="1">
                    <mxGeometry x="660" y="321.12" width="18.88" height="18.88" as="geometry"/>
                </mxCell>
                <mxCell id="64" value="T15" style="ellipse;whiteSpace=wrap;html=1;aspect=fixed;strokeColor=#808080;opacity=50;fontColor=#808080;" parent="1" vertex="1">
                    <mxGeometry x="780" y="318.88" width="20" height="20" as="geometry"/>
                </mxCell>
                <mxCell id="65" value="T16" style="ellipse;whiteSpace=wrap;html=1;aspect=fixed;strokeColor=#808080;opacity=50;fontColor=#808080;" parent="1" vertex="1">
                    <mxGeometry x="640" y="340" width="18.88" height="18.88" as="geometry"/>
                </mxCell>
                <mxCell id="66" value="T17" style="ellipse;whiteSpace=wrap;html=1;aspect=fixed;strokeColor=#808080;opacity=50;fontColor=#808080;" parent="1" vertex="1">
                    <mxGeometry x="661.12" y="340" width="18.88" height="18.88" as="geometry"/>
                </mxCell>
                <mxCell id="67" value="T31" style="ellipse;whiteSpace=wrap;html=1;aspect=fixed;strokeColor=#808080;opacity=50;fontColor=#808080;" parent="1" vertex="1">
                    <mxGeometry x="780" y="338.88" width="20" height="20" as="geometry"/>
                </mxCell>
                <mxCell id="61" value="" style="rounded=1;whiteSpace=wrap;html=1;fillColor=#f8cecc;strokeColor=#b85450;opacity=40;rotation=-90;" parent="1" vertex="1">
                    <mxGeometry x="699.15" y="256.59" width="42.67" height="164" as="geometry"/>
                </mxCell>
                <mxCell id="70" value="" style="endArrow=classic;html=1;dashed=1;" parent="1" edge="1">
                    <mxGeometry width="50" height="50" relative="1" as="geometry">
                        <mxPoint x="295" y="154.14" as="sourcePoint"/>
                        <mxPoint x="665" y="154.14" as="targetPoint"/>
                    </mxGeometry>
                </mxCell>
            </root>
        </mxGraphModel>
    </diagram>
</mxfile>